<?xml version="1.0" encoding="utf-8"?>
<!-- Generator: Adobe Illustrator 17.0.2, SVG Export Plug-In . SVG Version: 6.00 Build 0)  -->
<!DOCTYPE svg PUBLIC "-//W3C//DTD SVG 1.1//EN" "http://www.w3.org/Graphics/SVG/1.1/DTD/svg11.dtd">
<svg version="1.1" id="Layer_1" xmlns="http://www.w3.org/2000/svg" xmlns:xlink="http://www.w3.org/1999/xlink" x="0px" y="0px"
	 width="2984px" height="3632px" viewBox="0 0 2984 3632" enable-background="new 0 0 2984 3632" xml:space="preserve">
<circle fill="#FFFFFF" stroke="#000000" stroke-width="4" stroke-miterlimit="10" cx="1492" cy="1984.991" r="1386.239"/>
<rect x="824.629" y="1587.593" fill="none" width="1375.975" height="850.302"/>
<g enable-background="new    ">
	<path d="M881.507,2368.714v-795.08l180.261,313.311v-273.61h83.693v755.38h-83.693v-331.552l-97.642-162.021v493.572H881.507z"/>
	<path d="M1260.257,1613.334h82.619v755.38h-82.619V1613.334z"/>
	<path d="M1493.09,2134.804v-554.732c194.21,53.649,271.465,211.378,271.465,339.063c0,122.319-64.379,192.063-85.839,215.669
		c85.839,9.657,85.839,60.087,85.839,114.809v119.102h-82.62v-119.102c0-24.678-2.146-37.554-35.408-37.554h-70.816v156.655h-82.62
		v-156.655h-70.817l-48.284-77.255H1493.09z M1575.71,2134.804c81.547-57.941,106.225-142.707,106.225-206.013
		c0-41.847-11.803-143.78-106.225-215.669V2134.804z"/>
	<path d="M1890.086,2134.804v-521.47h236.057v82.62h-153.437v438.85h153.437v77.255h-153.437v31.116
		c0,26.824,0,42.919,31.116,42.919h122.32v82.62h-122.32c-110.518,0-113.736-89.058-113.736-125.539v-31.116h-70.816l-48.284-77.255
		H1890.086z"/>
</g>
</svg>
