<?xml version="1.0" encoding="utf-8"?>
<!-- Generator: Adobe Illustrator 17.0.2, SVG Export Plug-In . SVG Version: 6.00 Build 0)  -->
<!DOCTYPE svg PUBLIC "-//W3C//DTD SVG 1.1//EN" "http://www.w3.org/Graphics/SVG/1.1/DTD/svg11.dtd">
<svg version="1.1" id="Layer_1" xmlns="http://www.w3.org/2000/svg" xmlns:xlink="http://www.w3.org/1999/xlink" x="0px" y="0px"
	 width="370.959px" height="370.959px" viewBox="0 0 370.959 370.959" enable-background="new 0 0 370.959 370.959"
	 xml:space="preserve">
<circle fill="#FFFFFF" stroke="#000000" stroke-width="4" stroke-miterlimit="10" cx="185.48" cy="185.48" r="183.48"/>
<g enable-background="new    ">
	<path d="M104.676,236.268V131.033l23.859,41.469v-36.214h11.077v99.98h-11.077v-43.883l-12.924-21.445v65.328H104.676z"/>
	<path d="M154.807,136.288h10.935v99.98h-10.935V136.288z"/>
	<path d="M185.624,205.308v-73.423c25.705,7.101,35.931,27.978,35.931,44.878c0,16.19-8.521,25.421-11.361,28.545
		c11.361,1.278,11.361,7.953,11.361,15.196v15.764h-10.935v-15.764c0-3.266-0.284-4.971-4.687-4.971h-9.373v20.735h-10.935v-20.735
		h-9.373l-6.391-10.225L185.624,205.308L185.624,205.308z M196.559,205.308c10.793-7.669,14.06-18.888,14.06-27.267
		c0-5.539-1.562-19.03-14.06-28.545V205.308z"/>
	<path d="M238.169,205.308v-69.021h31.244v10.935h-20.309v58.085h20.309v10.225h-20.309v4.118c0,3.55,0,5.681,4.118,5.681h16.19
		v10.935h-16.19c-14.628,0-15.054-11.788-15.054-16.616v-4.118h-9.373l-6.391-10.225H238.169z"/>
</g>
</svg>
