<?xml version="1.0" encoding="utf-8"?>
<!-- Generator: Adobe Illustrator 17.0.2, SVG Export Plug-In . SVG Version: 6.00 Build 0)  -->
<!DOCTYPE svg PUBLIC "-//W3C//DTD SVG 1.1//EN" "http://www.w3.org/Graphics/SVG/1.1/DTD/svg11.dtd">
<svg version="1.1" id="Layer_1" xmlns="http://www.w3.org/2000/svg" xmlns:xlink="http://www.w3.org/1999/xlink" x="0px" y="0px"
	 width="612px" height="792px" viewBox="0 0 612 792" enable-background="new 0 0 612 792" xml:space="preserve">
<circle fill="#010101" stroke="#010101" stroke-width="5" stroke-miterlimit="10" cx="367.5" cy="433.245" r="288.414"/>
<g enable-background="new    ">
	<path fill="#FFFFFF" d="M299.246,359.811h25.321c0.171-37.24,0.783-59.257,1.827-66.044c1.913-15.663,8.483-28.062,19.709-37.199
		c11.225-9.137,27.104-13.705,47.641-13.705c14.79,0,31.497,3.394,50.12,10.181v54.297c-10.271-2.957-18.709-4.438-25.321-4.438
		c-8.354,0-14.447,1.742-18.272,5.221c-2.786,2.61-4.177,8.007-4.177,16.185l-0.262,35.502h45.161v60.301h-45.161v223.716h-71.265
		V420.112h-25.321V359.811z"/>
</g>
</svg>
