<?xml version="1.0" encoding="utf-8"?>
<!-- Generator: Adobe Illustrator 17.0.2, SVG Export Plug-In . SVG Version: 6.00 Build 0)  -->
<!DOCTYPE svg PUBLIC "-//W3C//DTD SVG 1.1//EN" "http://www.w3.org/Graphics/SVG/1.1/DTD/svg11.dtd">
<svg version="1.1" id="Layer_1" xmlns="http://www.w3.org/2000/svg" xmlns:xlink="http://www.w3.org/1999/xlink" x="0px" y="0px"
	 width="105.063px" height="113.924px" viewBox="0 0 105.063 113.924" enable-background="new 0 0 105.063 113.924"
	 xml:space="preserve">
<path d="M57.058,30.689c0,0-1.635-20.849-20.032-20.032c0,0-17.17,0.409-17.988,20.032v45.787c0,0,2.044,26.164,26.573,27.39h31.887
	c0,0,16.352-2.453,15.535-19.623c0,0-0.409-13.082-15.535-16.761c0,0,17.638-2.862,15.564-20.032c0,0,0.788-11.856-14.338-16.352
	L57.058,30.689z"/>
<path fill="#FFFFFF" d="M47.951,39.16V26.078c0,0-0.818-6.541-9.198-6.95c0,0-9.198,0.818-9.198,7.154v51.919
	c0,0,0.409,13.286,16.557,17.17h31.274c0,0,8.994-1.226,8.585-10.425c0,0-1.022-8.176-7.767-8.994l-29.434-0.204V59.192
	l28.004-0.204c0,0,9.43-1.431,9.212-10.22c0,0-0.218-7.972-9.621-9.607H47.951z"/>
</svg>
